<svg xmlns="http://www.w3.org/2000/svg" viewBox="0 0 512 512" fill="#ffffff">
  <!-- Store building -->
  <rect x="80" y="180" width="352" height="252" rx="8" opacity="0.4"/>
  <!-- Roof -->
  <path d="M256 80L60 180h392L256 80z" opacity="0.6"/>
  <!-- Door -->
  <rect x="216" y="332" width="80" height="100" rx="4"/>
  <!-- Windows -->
  <rect x="120" y="220" width="80" height="80" rx="4" opacity="0.8"/>
  <rect x="312" y="220" width="80" height="80" rx="4" opacity="0.8"/>
  <!-- Milk bottles -->
  <g transform="translate(140, 240)">
    <path d="M0 20h20v30h-20z"/>
    <path d="M5 10h10v10h-10z" opacity="0.7"/>
  </g>
  <g transform="translate(332, 240)">
    <path d="M0 20h20v30h-20z"/>
    <path d="M5 10h10v10h-10z" opacity="0.7"/>
    <path d="M25 20h20v30h-20z"/>
    <path d="M30 10h10v10h-10z" opacity="0.7"/>
  </g>
  <!-- Sign -->
  <rect x="206" y="160" width="100" height="40" rx="4" opacity="0.9"/>
  <path d="M216 180h80" stroke="#ffffff" stroke-width="2" opacity="0.9"/>
</svg>
