<svg xmlns="http://www.w3.org/2000/svg" viewBox="0 0 512 512" fill="#ffffff">
  <path d="M186.62 464H160a32 32 0 01-32-32V196.82a32 32 0 01-32-32V96a16 16 0 0116-16h216a16 16 0 0116 16v68.82a32 32 0 01-32 32V432a32 32 0 01-32 32h-26.62" opacity="0.4"/>
  <path d="M96 96v68.82a8 8 0 008 8h16V96zM384 96v76.82h16a8 8 0 008-8V96z"/>
  <path d="M314 96H106a16 16 0 01-16-16V48a16 16 0 0116-16h208a16 16 0 0116 16v32a16 16 0 01-16 16z"/>
  <path d="M186.62 464h26.91a8 8 0 008-8V270.76a16 16 0 00-4.69-11.31l-10.61-10.61a16 16 0 00-22.62 0l-10.61 10.61a16 16 0 00-4.69 11.31V456a8 8 0 008 8h10.31"/>
</svg>
